Format;Avi

File Size:642mb

Video: ID : 0
Format : MPEG-4 Visual
Format profile : Advanced Simple@L5
Format settings, BVOP : Yes
Format settings, QPel : No
Format settings, GMC : No warppoints
Format settings, Matrix : Custom
Codec ID : XVID
Codec ID/Hint : XviD
Duration : 1h 8mn
Bit rate : 1 114 Kbps
Width : 700 pixels
Height : 386 pixels
Display aspect ratio : 16:9
Frame rate : 29.970 fps
Color space : YUV
Chroma subsampling : 4:2:0
Bit depth : 8 bits
Scan type : Progressive
Bits/(Pixel*Frame) : 0.138
Stream size : 543 MiB (85%)
Writing library : XviD 1.2.1 (UTC 2008-12-04)


Audio: ID : 1
Format : AC-3
Format/Info : Audio Coding 3
Mode extension : CM (complete main)
Codec ID : 2000
Duration : 1h 8mn
Bit rate mode : Constant
Bit rate : 192 Kbps
Channel(s) : 2 channels
Channel positions : Front: L R
Sampling rate : 48.0 KHz
Bit depth : 16 bits
Stream size : 93.6 MiB (15%)
Alignment : Aligned on interleaves
Interleave, duration : 33 ms (1.00 video frame)
Interleave, preload duration : 512 ms

Duration:1:08

Release Date:2010

Language:English

Plot: A Repulsive yet Fascinating Glimpse into the Mind of a Deranged Killer

Michael Regardie is a lonely, delusional and sick religious zealot of his
own invented faith a faith that justifies hideous rituals of murder, rape
and sexual torture. Absolution from his escalating nihilism and debauchery
may lie in his latest victim. But as salvation seems at hand, a specter
from his past demands revenge

Depraved serial killer Michael Regardie invents a religion that justifies
his unspeakable crimes against humanity, but finds his bloody quest for
redemption unexpectedly complicated by the sudden reappearance of a
malevolent apparition from the past


Cast: